  0
SECTION
  2
HEADER
  9
$ACADVER
  1
AC1014
  9
$HANDSEED
  5
FFFF
  9
$INSUNITS
 70
     4
  9
$MEASUREMENT
 70
     1
  0
ENDSEC
  0
SECTION
  2
TABLES
  0
TABLE
  2
VPORT
  5
8
330
0
100
AcDbSymbolTable
 70
     4
  0
VPORT
  5
2E
330
8
100
AcDbSymbolTableRecord
100
AcDbViewportTableRecord
  2
*ACTIVE
 70
     0
 10
0.0
 20
0.0
 11
1.0
 21
1.0
 12
210.0
 22
148.5
 13
0.0
 23
0.0
 14
10.0
 24
10.0
 15
10.0
 25
10.0
 16
0.0
 26
0.0
 36
1.0
 17
0.0
 27
0.0
 37
0.0
 40
341.0
 41
1.24
 42
50.0
 43
0.0
 44
0.0
 50
0.0
 51
0.0
 71
     0
 72
   100
 73
     1
 74
     3
 75
     0
 76
     0
 77
     0
 78
     0
  0
ENDTAB
  0
TABLE
  2
LTYPE
  5
5
330
0
100
AcDbSymbolTable
 70
     1
  0
LTYPE
  5
14
330
5
100
AcDbSymbolTableRecord
100
AcDbLinetypeTableRecord
  2
BYBLOCK
 70
     0
  3

 72
    65
 73
     0
 40
0.0
  0
LTYPE
  5
15
330
5
100
AcDbSymbolTableRecord
100
AcDbLinetypeTableRecord
  2
BYLAYER
 70
     0
  3

 72
    65
 73
     0
 40
0.0
  0
LTYPE
  5
16
330
5
100
AcDbSymbolTableRecord
100
AcDbLinetypeTableRecord
  2
CONTINUOUS
 70
     0
  3
Solid line
 72
    65
 73
     0
 40
0.0
  0
ENDTAB
  0
TABLE
  2
LAYER
  5
2
100
AcDbSymbolTable
 70
3
  0
LAYER
  5
50
100
AcDbSymbolTableRecord
100
AcDbLayerTableRecord
  2
0
 70
0
  6
CONTINUOUS
  0
LAYER
  5
51
100
AcDbSymbolTableRecord
100
AcDbLayerTableRecord
  2
Layer_1
 70
0
  6
CONTINUOUS
  0
LAYER
  5
52
100
AcDbSymbolTableRecord
100
AcDbLayerTableRecord
  2
1002
 70
0
  6
CONTINUOUS
  0
ENDTAB
  0
TABLE
  2
STYLE
  5
3
330
0
100
AcDbSymbolTable
 70
     1
  0
STYLE
  5
11
330
3
100
AcDbSymbolTableRecord
100
AcDbTextStyleTableRecord
  2
STANDARD
 70
     0
 40
0.0
 41
1.0
 50
0.0
 71
     0
 42
2.5
  3
txt
  4

  0
ENDTAB
  0
TABLE
  2
VIEW
  5
6
330
0
100
AcDbSymbolTable
 70
     0
  0
ENDTAB
  0
TABLE
  2
UCS
  5
7
330
0
100
AcDbSymbolTable
 70
     0
  0
ENDTAB
  0
TABLE
  2
APPID
  5
9
330
0
100
AcDbSymbolTable
 70
     2
  0
APPID
  5
12
330
9
100
AcDbSymbolTableRecord
100
AcDbRegAppTableRecord
  2
ACAD
 70
     0
  0
ENDTAB
  0
TABLE
  2
DIMSTYLE
  5
A
330
0
100
AcDbSymbolTable
 70
     1
  0
DIMSTYLE
105
27
330
A
100
AcDbSymbolTableRecord
100
AcDbDimStyleTableRecord
  2
ISO-25
 70
     0
  3

  4

  5

  6

  7

 40
1.0
 41
2.5
 42
0.625
 43
3.75
 44
1.25
 45
0.0
 46
0.0
 47
0.0
 48
0.0
140
2.5
141
2.5
142
0.0
143
0.03937007874016
144
1.0
145
0.0
146
1.0
147
0.625
 71
     0
 72
     0
 73
     0
 74
     0
 75
     0
 76
     0
 77
     1
 78
     8
170
     0
171
     3
172
     1
173
     0
174
     0
175
     0
176
     0
177
     0
178
     0
270
     2
271
     2
272
     2
273
     2
274
     3
340
11
275
     0
280
     0
281
     0
282
     0
283
     0
284
     8
285
     0
286
     0
287
     3
288
     0
  0
ENDTAB
  0
TABLE
  2
BLOCK_RECORD
  5
1
330
0
100
AcDbSymbolTable
 70
     1
  0
BLOCK_RECORD
  5
1F
330
1
100
AcDbSymbolTableRecord
100
AcDbBlockTableRecord
  2
*MODEL_SPACE
  0
BLOCK_RECORD
  5
1B
330
1
100
AcDbSymbolTableRecord
100
AcDbBlockTableRecord
  2
*PAPER_SPACE
  0
ENDTAB
  0
ENDSEC
  0
SECTION
  2
BLOCKS
  0
BLOCK
  5
20
330
1F
100
AcDbEntity
  8
0
100
AcDbBlockBegin
  2
*MODEL_SPACE
 70
     0
 10
0.0
 20
0.0
 30
0.0
  3
*MODEL_SPACE
  1

  0
ENDBLK
  5
21
330
1F
100
AcDbEntity
  8
0
100
AcDbBlockEnd
  0
BLOCK
  5
1C
330
1B
100
AcDbEntity
 67
     1
  8
0
100
AcDbBlockBegin
  2
*PAPER_SPACE
  1

  0
ENDBLK
  5
1D
330
1B
100
AcDbEntity
 67
     1
  8
0
100
AcDbBlockEnd
  0
ENDSEC
  0
SECTION
  2
ENTITIES
  0
LWPOLYLINE
  5
100
100
AcDbEntity
  8
1002
 62
7
100
AcDbPolyline
 90
4
 70
1
 10
59.559665
 20
188.854982
 30
0.0
 10
68.572021
 20
181.955093
 30
0.0
 10
71.644472
 20
187.842498
 30
0.0
 10
64.629585
 20
195.559875
 30
0.0
  0
LWPOLYLINE
  5
101
100
AcDbEntity
  8
1002
 62
7
100
AcDbPolyline
 90
4
 70
1
 10
22.325270
 20
195.407610
 30
0.0
 10
24.362738
 20
193.715138
 30
0.0
 10
29.412657
 20
195.157614
 30
0.0
 10
25.027727
 20
198.687558
 30
0.0
  0
LWPOLYLINE
  5
102
100
AcDbEntity
  8
1002
 62
7
100
AcDbPolyline
 90
4
 70
1
 10
29.842663
 20
189.907216
 30
0.0
 10
34.570088
 20
193.527157
 30
0.0
 10
31.862631
 20
200.414548
 30
0.0
 10
29.412670
 20
195.157131
 30
0.0
  0
LWPOLYLINE
  5
103
100
AcDbEntity
  8
1002
 62
7
100
AcDbPolyline
 90
4
 70
1
 10
27.152701
 20
203.819492
 30
0.0
 10
31.862625
 20
200.414547
 30
0.0
 10
38.105026
 20
201.169535
 30
0.0
 10
33.860094
 20
207.446934
 30
0.0
  0
LWPOLYLINE
  5
104
100
AcDbEntity
  8
1002
 62
7
100
AcDbPolyline
 90
4
 70
1
 10
25.027761
 20
198.687588
 30
0.0
 10
27.152727
 20
203.820006
 30
0.0
 10
20.200338
 20
206.977455
 30
0.0
 10
18.657862
 20
201.752538
 30
0.0
  0
LWPOLYLINE
  5
105
100
AcDbEntity
  8
1002
 62
7
100
AcDbPolyline
 90
4
 70
1
 10
34.570100
 20
193.527915
 30
0.0
 10
41.394991
 20
184.690556
 30
0.0
 10
47.192398
 20
187.848006
 30
0.0
 10
41.599988
 20
195.945376
 30
0.0
  0
LWPOLYLINE
  5
106
100
AcDbEntity
  8
1002
 62
7
100
AcDbPolyline
 90
4
 70
1
 10
50.232345
 20
182.009241
 30
0.0
 10
59.559695
 20
188.854131
 30
0.0
 10
54.462277
 20
195.529025
 30
0.0
 10
47.192393
 20
187.846648
 30
0.0
  0
LWPOLYLINE
  5
107
100
AcDbEntity
  8
1002
 62
7
100
AcDbPolyline
 90
4
 70
1
 10
47.639879
 20
203.758464
 30
0.0
 10
54.462270
 20
195.528595
 30
0.0
 10
59.534688
 20
198.521048
 30
0.0
 10
54.632266
 20
206.878414
 30
0.0
  0
LWPOLYLINE
  5
108
100
AcDbEntity
  8
1002
 62
7
100
AcDbPolyline
 90
4
 70
1
 10
41.599983
 20
195.944862
 30
0.0
 10
47.639886
 20
203.757237
 30
0.0
 10
41.782480
 20
208.739657
 30
0.0
 10
38.105039
 20
201.169778
 30
0.0
  0
LWPOLYLINE
  5
109
100
AcDbEntity
  8
1002
 62
7
100
AcDbPolyline
 90
4
 70
1
 10
77.499414
 20
184.665456
 30
0.0
 10
84.634300
 20
193.617813
 30
0.0
 10
77.449415
 20
195.827778
 30
0.0
 10
71.644508
 20
187.842905
 30
0.0
  0
LWPOLYLINE
  5
10a
100
AcDbEntity
  8
1002
 62
7
100
AcDbPolyline
 90
4
 70
1
 10
71.407017
 20
203.672871
 30
0.0
 10
77.449421
 20
195.827997
 30
0.0
 10
81.109362
 20
201.040413
 30
0.0
 10
77.309423
 20
208.770290
 30
0.0
  0
LWPOLYLINE
  5
10b
100
AcDbEntity
  8
1002
 62
7
100
AcDbPolyline
 90
4
 70
1
 10
64.629584
 20
195.560362
 30
0.0
 10
71.406975
 20
203.672732
 30
0.0
 10
64.337088
 20
206.850181
 30
0.0
 10
59.534665
 20
198.520315
 30
0.0
  0
LWPOLYLINE
  5
10c
100
AcDbEntity
  8
1002
 62
7
100
AcDbPolyline
 90
4
 70
1
 10
84.634313
 20
193.616881
 30
0.0
 10
88.989243
 20
189.829442
 30
0.0
 10
89.619233
 20
195.104357
 30
0.0
 10
87.469267
 20
200.541770
 30
0.0
  0
LWPOLYLINE
  5
10d
100
AcDbEntity
  8
1002
 62
7
100
AcDbPolyline
 90
4
 70
1
 10
94.791607
 20
193.961109
 30
0.0
 10
96.851574
 20
195.801079
 30
0.0
 10
94.071618
 20
198.941029
 30
0.0
 10
89.619189
 20
195.103590
 30
0.0
  0
LWPOLYLINE
  5
10e
100
AcDbEntity
  8
1002
 62
7
100
AcDbPolyline
 90
4
 70
1
 10
91.936666
 20
204.335691
 30
0.0
 10
94.071632
 20
198.940778
 30
0.0
 10
100.419030
 20
201.895730
 30
0.0
 10
98.919054
 20
207.243145
 30
0.0
  0
LWPOLYLINE
  5
10f
100
AcDbEntity
  8
1002
 62
7
100
AcDbPolyline
 90
4
 70
1
 10
87.469230
 20
200.541822
 30
0.0
 10
91.936658
 20
204.336762
 30
0.0
 10
85.101767
 20
207.569210
 30
0.0
 10
81.109332
 20
201.039314
 30
0.0
  0
LWPOLYLINE
  5
110
100
AcDbEntity
  8
1002
 62
7
100
AcDbPolyline
 90
4
 70
1
 10
15.057887
 20
208.722692
 30
0.0
 10
20.200304
 20
206.977720
 30
0.0
 10
26.827699
 20
213.562614
 30
0.0
 10
18.917825
 20
216.720063
 30
0.0
  0
LWPOLYLINE
  5
111
100
AcDbEntity
  8
1002
 62
7
100
AcDbPolyline
 90
4
 70
1
 10
33.860086
 20
207.445854
 30
0.0
 10
35.815055
 20
214.760737
 30
0.0
 10
28.107678
 20
219.555660
 30
0.0
 10
26.827699
 20
213.560756
 30
0.0
  0
LWPOLYLINE
  5
112
100
AcDbEntity
  8
1002
 62
7
100
AcDbPolyline
 90
4
 70
1
 10
23.687738
 20
223.778912
 30
0.0
 10
28.107667
 20
219.553979
 30
0.0
 10
36.185038
 20
223.918909
 30
0.0
 10
31.890106
 20
230.298807
 30
0.0
  0
LWPOLYLINE
  5
113
100
AcDbEntity
  8
1002
 62
7
100
AcDbPolyline
 90
4
 70
1
 10
18.917851
 20
216.720755
 30
0.0
 10
23.687775
 20
223.778142
 30
0.0
 10
15.415407
 20
230.150541
 30
0.0
 10
10.425487
 20
224.035639
 30
0.0
  0
LWPOLYLINE
  5
114
100
AcDbEntity
  8
1002
 62
7
100
AcDbPolyline
 90
4
 70
1
 10
35.815082
 20
214.761563
 30
0.0
 10
41.782487
 20
208.739160
 30
0.0
 10
48.832373
 20
212.149105
 30
0.0
 10
43.919953
 20
218.858998
 30
0.0
  0
LWPOLYLINE
  5
115
100
AcDbEntity
  8
1002
 62
7
100
AcDbPolyline
 90
4
 70
1
 10
54.632262
 20
206.879445
 30
0.0
 10
59.584683
 20
215.256811
 30
0.0
 10
52.267300
 20
219.504244
 30
0.0
 10
48.832355
 20
212.149361
 30
0.0
  0
LWPOLYLINE
  5
116
100
AcDbEntity
  8
1002
 62
7
100
AcDbPolyline
 90
4
 70
1
 10
47.724873
 20
226.240878
 30
0.0
 10
52.267300
 20
219.503486
 30
0.0
 10
59.602183
 20
223.125927
 30
0.0
 10
55.894742
 20
230.428310
 30
0.0
  0
LWPOLYLINE
  5
117
100
AcDbEntity
  8
1002
 62
7
100
AcDbPolyline
 90
4
 70
1
 10
43.919921
 20
218.858014
 30
0.0
 10
47.724860
 20
226.240397
 30
0.0
 10
39.527491
 20
230.305331
 30
0.0
 10
36.185044
 20
223.917933
 30
0.0
  0
LWPOLYLINE
  5
118
100
AcDbEntity
  8
1002
 62
7
100
AcDbPolyline
 90
4
 70
1
 10
59.584695
 20
215.257304
 30
0.0
 10
64.337119
 20
206.849939
 30
0.0
 10
70.207025
 20
211.989857
 30
0.0
 10
66.927077
 20
219.472237
 30
0.0
  0
LWPOLYLINE
  5
119
100
AcDbEntity
  8
1002
 62
7
100
AcDbPolyline
 90
4
 70
1
 10
77.309406
 20
208.770295
 30
0.0
 10
83.351810
 20
215.007695
 30
0.0
 10
75.249439
 20
218.855134
 30
0.0
 10
70.207020
 20
211.990244
 30
0.0
  0
LWPOLYLINE
  5
11a
100
AcDbEntity
  8
1002
 62
7
100
AcDbPolyline
 90
4
 70
1
 10
71.287003
 20
226.394532
 30
0.0
 10
75.249439
 20
218.854652
 30
0.0
 10
82.811818
 20
223.974570
 30
0.0
 10
79.331874
 20
230.466966
 30
0.0
  0
LWPOLYLINE
  5
11b
100
AcDbEntity
  8
1002
 62
7
100
AcDbPolyline
 90
4
 70
1
 10
66.927058
 20
219.473249
 30
0.0
 10
71.286988
 20
226.395639
 30
0.0
 10
63.214618
 20
230.455574
 30
0.0
 10
59.602175
 20
223.125691
 30
0.0
  0
LWPOLYLINE
  5
11c
100
AcDbEntity
  8
1002
 62
7
100
AcDbPolyline
 90
4
 70
1
 10
83.351815
 20
215.008289
 30
0.0
 10
85.101787
 20
207.568408
 30
0.0
 10
92.146674
 20
213.705810
 30
0.0
 10
90.904194
 20
219.848212
 30
0.0
  0
LWPOLYLINE
  5
11d
100
AcDbEntity
  8
1002
 62
7
100
AcDbPolyline
 90
4
 70
1
 10
98.919054
 20
207.242138
 30
0.0
 10
104.136470
 20
209.089609
 30
0.0
 10
100.159034
 20
217.054481
 30
0.0
 10
92.146662
 20
213.707035
 30
0.0
  0
LWPOLYLINE
  5
11e
100
AcDbEntity
  8
1002
 62
7
100
AcDbPolyline
 90
4
 70
1
 10
95.329144
 20
224.259543
 30
0.0
 10
100.159067
 20
217.054658
 30
0.0
 10
108.626431
 20
224.214543
 30
0.0
 10
103.579012
 20
230.479443
 30
0.0
  0
LWPOLYLINE
  5
11f
100
AcDbEntity
  8
1002
 62
7
100
AcDbPolyline
 90
4
 70
1
 10
90.904194
 20
219.847999
 30
0.0
 10
95.329124
 20
224.260429
 30
0.0
 10
87.051756
 20
230.480329
 30
0.0
 10
82.811824
 20
223.975433
 30
0.0
  0
LWPOLYLINE
  5
120
100
AcDbEntity
  8
1002
 62
7
100
AcDbPolyline
 90
4
 70
1
 10
10.302981
 20
236.161213
 30
0.0
 10
15.415400
 20
230.148810
 30
0.0
 10
23.575269
 20
236.506208
 30
0.0
 10
18.750346
 20
243.576095
 30
0.0
  0
LWPOLYLINE
  5
121
100
AcDbEntity
  8
1002
 62
7
100
AcDbPolyline
 90
4
 70
1
 10
31.890131
 20
230.299496
 30
0.0
 10
36.182562
 20
236.686894
 30
0.0
 10
27.957694
 20
240.831827
 30
0.0
 10
23.575264
 20
236.506897
 30
0.0
  0
LWPOLYLINE
  5
122
100
AcDbEntity
  8
1002
 62
7
100
AcDbPolyline
 90
4
 70
1
 10
26.657708
 20
246.865548
 30
0.0
 10
27.957688
 20
240.833145
 30
0.0
 10
35.615065
 20
245.735567
 30
0.0
 10
33.622597
 20
253.132948
 30
0.0
  0
LWPOLYLINE
  5
123
100
AcDbEntity
  8
1002
 62
7
100
AcDbPolyline
 90
4
 70
1
 10
18.750341
 20
243.576872
 30
0.0
 10
26.657715
 20
246.864319
 30
0.0
 10
19.885323
 20
253.371715
 30
0.0
 10
14.687906
 20
251.586744
 30
0.0
  0
LWPOLYLINE
  5
124
100
AcDbEntity
  8
1002
 62
7
100
AcDbPolyline
 90
4
 70
1
 10
36.182556
 20
236.687480
 30
0.0
 10
39.527503
 20
230.305082
 30
0.0
 10
47.667372
 20
234.547514
 30
0.0
 10
43.852434
 20
241.894896
 30
0.0
  0
LWPOLYLINE
  5
125
100
AcDbEntity
  8
1002
 62
7
100
AcDbPolyline
 90
4
 70
1
 10
55.894754
 20
230.427819
 30
0.0
 10
59.552196
 20
237.752702
 30
0.0
 10
52.257313
 20
241.332644
 30
0.0
 10
47.667386
 20
234.547753
 30
0.0
  0
LWPOLYLINE
  5
126
100
AcDbEntity
  8
1002
 62
7
100
AcDbPolyline
 90
4
 70
1
 10
48.644844
 20
248.662538
 30
0.0
 10
52.257286
 20
241.332656
 30
0.0
 10
59.512170
 20
245.787584
 30
0.0
 10
54.327253
 20
253.979953
 30
0.0
  0
LWPOLYLINE
  5
127
100
AcDbEntity
  8
1002
 62
7
100
AcDbPolyline
 90
4
 70
1
 10
43.852439
 20
241.896148
 30
0.0
 10
48.644862
 20
248.663540
 30
0.0
 10
41.587475
 20
251.945987
 30
0.0
 10
35.615071
 20
245.736086
 30
0.0
  0
LWPOLYLINE
  5
128
100
AcDbEntity
  8
1002
 62
7
100
AcDbPolyline
 90
4
 70
1
 10
59.552202
 20
237.751921
 30
0.0
 10
63.214643
 20
230.454538
 30
0.0
 10
71.277014
 20
234.619471
 30
0.0
 10
66.812085
 20
241.391863
 30
0.0
  0
LWPOLYLINE
  5
129
100
AcDbEntity
  8
1002
 62
7
100
AcDbPolyline
 90
4
 70
1
 10
79.331879
 20
230.467943
 30
0.0
 10
82.789324
 20
236.972839
 30
0.0
 10
75.196945
 20
242.095257
 30
0.0
 10
71.277008
 20
234.620376
 30
0.0
  0
LWPOLYLINE
  5
12a
100
AcDbEntity
  8
1002
 62
7
100
AcDbPolyline
 90
4
 70
1
 10
70.059533
 20
248.804905
 30
0.0
 10
75.196951
 20
242.095012
 30
0.0
 10
83.331821
 20
245.969950
 30
0.0
 10
77.244419
 20
252.092352
 30
0.0
  0
LWPOLYLINE
  5
12b
100
AcDbEntity
  8
1002
 62
7
100
AcDbPolyline
 90
4
 70
1
 10
66.812050
 20
241.390768
 30
0.0
 10
70.059498
 20
248.805650
 30
0.0
 10
64.202091
 20
254.095564
 30
0.0
 10
59.512166
 20
245.788197
 30
0.0
  0
LWPOLYLINE
  5
12c
100
AcDbEntity
  8
1002
 62
7
100
AcDbPolyline
 90
4
 70
1
 10
82.789325
 20
236.971594
 30
0.0
 10
87.051757
 20
230.479198
 30
0.0
 10
95.334125
 20
236.611600
 30
0.0
 10
90.914195
 20
241.091528
 30
0.0
  0
LWPOLYLINE
  5
12d
100
AcDbEntity
  8
1002
 62
7
100
AcDbPolyline
 90
4
 70
1
 10
103.579011
 20
230.480299
 30
0.0
 10
108.626430
 20
236.742699
 30
0.0
 10
100.086567
 20
243.860085
 30
0.0
 10
95.334143
 20
236.610201
 30
0.0
  0
LWPOLYLINE
  5
12e
100
AcDbEntity
  8
1002
 62
7
100
AcDbPolyline
 90
4
 70
1
 10
92.119157
 20
247.283931
 30
0.0
 10
100.086529
 20
243.858986
 30
0.0
 10
104.181463
 20
251.793859
 30
0.0
 10
99.004046
 20
253.676328
 30
0.0
  0
LWPOLYLINE
  5
12f
100
AcDbEntity
  8
1002
 62
7
100
AcDbPolyline
 90
4
 70
1
 10
90.914188
 20
241.092779
 30
0.0
 10
92.119168
 20
247.285180
 30
0.0
 10
85.014282
 20
253.397582
 30
0.0
 10
83.331809
 20
245.970201
 30
0.0
  0
LWPOLYLINE
  5
130
100
AcDbEntity
  8
1002
 62
7
100
AcDbPolyline
 90
4
 70
1
 10
18.242842
 20
258.635367
 30
0.0
 10
19.885316
 20
253.372951
 30
0.0
 10
26.817705
 20
256.610400
 30
0.0
 10
24.477742
 20
261.872815
 30
0.0
  0
LWPOLYLINE
  5
131
100
AcDbEntity
  8
1002
 62
7
100
AcDbPolyline
 90
4
 70
1
 10
33.622586
 20
253.133594
 30
0.0
 10
37.765019
 20
259.585991
 30
0.0
 10
31.592619
 20
260.250980
 30
0.0
 10
26.817695
 20
256.611038
 30
0.0
  0
LWPOLYLINE
  5
132
100
AcDbEntity
  8
1002
 62
7
100
AcDbPolyline
 90
4
 70
1
 10
28.947666
 20
265.626221
 30
0.0
 10
31.592624
 20
260.251307
 30
0.0
 10
34.147583
 20
267.206196
 30
0.0
 10
29.310161
 20
270.598642
 30
0.0
  0
LWPOLYLINE
  5
133
100
AcDbEntity
  8
1002
 62
7
100
AcDbPolyline
 90
4
 70
1
 10
24.477756
 20
261.872469
 30
0.0
 10
28.947685
 20
265.624909
 30
0.0
 10
24.167761
 20
267.007386
 30
0.0
 10
21.812799
 20
264.932420
 30
0.0
  0
LWPOLYLINE
  5
134
100
AcDbEntity
  8
1002
 62
7
100
AcDbPolyline
 90
4
 70
1
 10
37.765051
 20
259.585059
 30
0.0
 10
41.587490
 20
251.945181
 30
0.0
 10
47.307398
 20
257.167597
 30
0.0
 10
41.179996
 20
264.762476
 30
0.0
  0
LWPOLYLINE
  5
135
100
AcDbEntity
  8
1002
 62
7
100
AcDbPolyline
 90
4
 70
1
 10
54.327280
 20
253.980910
 30
0.0
 10
59.317200
 20
262.238278
 30
0.0
 10
54.179782
 20
265.308229
 30
0.0
 10
47.307392
 20
257.168359
 30
0.0
  0
LWPOLYLINE
  5
136
100
AcDbEntity
  8
1002
 62
7
100
AcDbPolyline
 90
4
 70
1
 10
46.717394
 20
272.751354
 30
0.0
 10
54.179774
 20
265.308973
 30
0.0
 10
59.342192
 20
272.278861
 30
0.0
 10
49.744846
 20
278.836256
 30
0.0
  0
LWPOLYLINE
  5
137
100
AcDbEntity
  8
1002
 62
7
100
AcDbPolyline
 90
4
 70
1
 10
41.179989
 20
264.761980
 30
0.0
 10
46.717400
 20
272.751852
 30
0.0
 10
40.717497
 20
275.994300
 30
0.0
 10
34.147602
 20
267.206940
 30
0.0
  0
LWPOLYLINE
  5
138
100
AcDbEntity
  8
1002
 62
7
100
AcDbPolyline
 90
4
 70
1
 10
59.317175
 20
262.238826
 30
0.0
 10
64.202097
 20
254.096456
 30
0.0
 10
71.331983
 20
257.241406
 30
0.0
 10
64.477092
 20
265.281277
 30
0.0
  0
LWPOLYLINE
  5
139
100
AcDbEntity
  8
1002
 62
7
100
AcDbPolyline
 90
4
 70
1
 10
77.244401
 20
252.093735
 30
0.0
 10
80.926842
 20
259.828611
 30
0.0
 10
77.199402
 20
265.096027
 30
0.0
 10
71.331996
 20
257.241153
 30
0.0
  0
LWPOLYLINE
  5
13a
100
AcDbEntity
  8
1002
 62
7
100
AcDbPolyline
 90
4
 70
1
 10
71.482016
 20
273.028296
 30
0.0
 10
77.199424
 20
265.095923
 30
0.0
 10
84.511807
 20
267.463385
 30
0.0
 10
77.564419
 20
276.325744
 30
0.0
  0
LWPOLYLINE
  5
13b
100
AcDbEntity
  8
1002
 62
7
100
AcDbPolyline
 90
4
 70
1
 10
64.477110
 20
265.281991
 30
0.0
 10
71.481998
 20
273.029367
 30
0.0
 10
68.202050
 20
279.089270
 30
0.0
 10
59.342192
 20
272.279379
 30
0.0
  0
LWPOLYLINE
  5
13c
100
AcDbEntity
  8
1002
 62
7
100
AcDbPolyline
 90
4
 70
1
 10
80.926859
 20
259.827822
 30
0.0
 10
85.014294
 20
253.397924
 30
0.0
 10
91.946683
 20
256.717872
 30
0.0
 10
87.374256
 20
260.372813
 30
0.0
  0
LWPOLYLINE
  5
13d
100
AcDbEntity
  8
1002
 62
7
100
AcDbPolyline
 90
4
 70
1
 10
99.004046
 20
253.675589
 30
0.0
 10
100.484022
 20
259.005504
 30
0.0
 10
93.984126
 20
262.027956
 30
0.0
 10
91.946659
 20
256.718041
 30
0.0
  0
LWPOLYLINE
  5
13e
100
AcDbEntity
  8
1002
 62
7
100
AcDbPolyline
 90
4
 70
1
 10
89.604203
 20
265.772705
 30
0.0
 10
93.984133
 20
262.027765
 30
0.0
 10
96.851587
 20
265.232714
 30
0.0
 10
94.866619
 20
267.030185
 30
0.0
  0
LWPOLYLINE
  5
13f
100
AcDbEntity
  8
1002
 62
7
100
AcDbPolyline
 90
4
 70
1
 10
87.374244
 20
260.373468
 30
0.0
 10
89.604209
 20
265.773382
 30
0.0
 10
88.969219
 20
271.160796
 30
0.0
 10
84.511790
 20
267.463355
 30
0.0
  0
ENDSEC
  0
SECTION
  2
OBJECTS
  0
DICTIONARY
  5
C
330
0
100
AcDbDictionary
  3
ACAD_GROUP
350
D
  3
ACAD_MLINESTYLE
350
17
  0
DICTIONARY
  5
D
330
C
100
AcDbDictionary
  0
DICTIONARY
  5
1A
330
C
100
AcDbDictionary
  0
DICTIONARY
  5
17
330
C
100
AcDbDictionary
  3
STANDARD
350
18
  0
DICTIONARY
  5
19
330
C
100
AcDbDictionary
  0
ENDSEC
  0
EOF
